<svg width="58" height="86" viewBox="0 0 58 86" fill="none" xmlns="http://www.w3.org/2000/svg">
<path d="M57.3944 36.838V36.73C57.4044 36.71 57.4044 36.69 57.3944 36.67C57.4044 36.51 57.3944 36.36 57.3844 36.21C57.3934 36.142 57.3904 36.074 57.3844 36.005C57.3894 35.782 57.4004 35.561 57.4004 35.337H57.3844C57.3544 32.468 57.2344 29.709 57.0944 27.12C56.7944 21.73 55.0844 16.63 52.1444 12.35C46.9144 4.73 37.9344 0 28.6944 0C19.4644 0 10.4744 4.73 5.24444 12.35C2.31444 16.63 0.604444 21.73 0.304444 27.12C0.154444 29.709 0.0344444 32.478 0.00444444 35.337H0.000444734C0.000444734 35.387 0.00344444 35.436 0.00444444 35.486V35.52C-0.00555556 35.98 0.00444444 36.45 0.00444444 36.91V36.936C0.00444444 36.986 0.000444734 37.035 0.000444734 37.085H0.00444444C0.0144444 40.984 0.204445 45.012 0.764445 48.981C1.57444 54.731 3.00444 60.091 5.04444 64.921C5.07444 65.021 5.11444 65.111 5.15444 65.201C5.25444 65.441 5.36444 65.681 5.47444 65.921C6.42444 68.081 7.50444 70.161 8.70444 72.121C14.4044 81.461 20.9344 86.001 28.6944 86.001C36.4544 86.001 42.9944 81.461 48.6844 72.121C49.8744 70.181 50.9444 68.121 51.8844 65.981C51.9844 65.781 52.0744 65.581 52.1644 65.371C52.1844 65.311 52.2144 65.261 52.2344 65.201C54.3244 60.301 55.8044 54.841 56.6244 48.981C57.1844 45.012 57.3844 40.974 57.3944 37.085H57.4004C57.4004 37.002 57.3954 36.92 57.3944 36.838ZM2.02144 36.211C2.45444 20.818 14.2514 8.435 28.7004 8.435C43.1504 8.435 54.9474 20.817 55.3804 36.211C54.9474 51.605 43.1504 63.988 28.7004 63.988C14.2514 63.988 2.45444 51.605 2.02144 36.211ZM6.89444 13.48C11.7544 6.4 20.1144 2 28.6944 2C37.2844 2 45.6344 6.4 50.4944 13.48C52.6844 16.67 54.1444 20.36 54.7744 24.29V24.3C50.2284 13.767 40.2534 6.436 28.7004 6.436C17.1364 6.436 7.15544 13.782 2.61444 24.33C2.61444 24.328 2.60944 24.325 2.61444 24.321C3.23444 20.38 4.69444 16.68 6.89444 13.48ZM28.6944 84C21.9644 84 16.1744 80.09 11.0344 72.06C16.0144 76.22 22.2044 78.56 28.7044 78.56C35.1644 78.56 41.3544 76.23 46.3444 72.09C41.1944 80.1 35.4144 84 28.6944 84ZM50.3944 64.42C50.3144 64.61 50.2244 64.8 50.1444 64.99C45.1044 72.25 37.1544 76.56 28.7044 76.56C20.1944 76.56 12.2444 72.23 7.21444 64.91C7.13444 64.75 7.06444 64.59 6.99444 64.42C4.97444 59.68 3.54444 54.39 2.74444 48.7C2.72444 48.56 2.70444 48.41 2.68444 48.27C2.68444 48.264 2.68444 48.261 2.68444 48.258C7.25744 58.718 17.1964 65.988 28.7004 65.988C40.1854 65.988 50.1114 58.743 54.6944 48.311C54.6844 48.441 54.6644 48.571 54.6444 48.7C53.8444 54.39 52.4144 59.68 50.3944 64.42Z" fill="white"/>
<path d="M29.0154 38.038C30.0388 38.038 30.8684 37.2084 30.8684 36.185C30.8684 35.1616 30.0388 34.332 29.0154 34.332C27.9921 34.332 27.1624 35.1616 27.1624 36.185C27.1624 37.2084 27.9921 38.038 29.0154 38.038Z" fill="white"/>
<path d="M29.0144 43.15C32.8544 43.15 35.9844 40.03 35.9844 36.18C35.9844 32.34 32.8544 29.21 29.0144 29.21C25.1744 29.21 22.0444 32.34 22.0444 36.18C22.0444 40.03 25.1744 43.15 29.0144 43.15ZM29.0144 30.21C32.3044 30.21 34.9844 32.89 34.9844 36.18C34.9844 39.48 32.3044 42.15 29.0144 42.15C25.7244 42.15 23.0444 39.48 23.0444 36.18C23.0444 32.89 25.7244 30.21 29.0144 30.21Z" fill="white"/>
<path d="M18.4824 48.268L18.4844 48.27C21.3044 50.74 24.9944 52.23 29.0144 52.23C33.3544 52.23 37.3144 50.49 40.1944 47.67L40.1974 47.667C41.5514 48.421 43.2694 48.26 44.4494 47.168C45.4254 48.385 45.5134 50.099 44.6884 51.411C44.7384 51.369 44.7794 51.327 44.8244 51.28C47.3524 48.642 47.2624 44.453 44.6244 41.925L44.5144 41.819C44.4144 41.723 44.3104 41.633 44.1954 41.553C44.1774 41.539 44.1574 41.531 44.1394 41.518C44.1404 41.515 44.1424 41.512 44.1434 41.51C44.7334 39.84 45.0534 38.05 45.0534 36.18C45.0534 28.8 40.0434 22.57 33.2434 20.71C33.2394 20.709 33.2364 20.708 33.2324 20.707C33.2334 20.34 33.1924 19.97 33.0794 19.607C33.0314 19.453 32.9714 19.289 32.9014 19.137C32.0804 17.372 30.0404 16.567 28.2464 17.273C27.7784 15.785 28.3184 14.156 29.5634 13.233C29.5014 13.254 29.4484 13.278 29.3894 13.306C26.6004 14.603 25.1484 17.598 25.6764 20.49H25.6744C18.4344 22.03 12.9744 28.48 12.9744 36.18C12.9744 38.297 13.3834 40.325 14.1314 42.173C13.9604 42.305 13.7984 42.453 13.6504 42.617C13.5424 42.736 13.4314 42.872 13.3374 43.01C12.2364 44.615 12.5824 46.781 14.1044 47.966C13.0614 49.127 11.3854 49.491 9.95644 48.89C10.0064 48.933 10.0544 48.966 10.1084 49.003C12.7604 50.822 16.2704 50.442 18.4824 48.268ZM15.9944 41.43C15.3344 39.81 14.9744 38.04 14.9744 36.18C14.9744 29.36 19.8644 23.66 26.3244 22.4C26.3284 22.399 26.3314 22.399 26.3354 22.398C26.3714 22.464 26.4024 22.533 26.4454 22.596C27.3984 24.179 29.4074 24.815 31.1194 24.019C31.7934 23.706 32.3194 23.212 32.6834 22.627C32.6874 22.628 32.6904 22.629 32.6944 22.63C38.6544 24.25 43.0544 29.71 43.0544 36.18C43.0544 37.8 42.7744 39.35 42.2644 40.8C42.2624 40.805 42.2604 40.809 42.2584 40.813C41.2014 40.729 40.1164 41.098 39.3244 41.924C38.1734 43.126 38.0044 44.891 38.7794 46.263C38.7774 46.265 38.7754 46.267 38.7734 46.269C36.2534 48.719 32.8034 50.229 29.0134 50.229C25.4234 50.229 22.1534 48.879 19.6734 46.659C19.6704 46.657 19.6684 46.654 19.6664 46.652C20.4384 45.051 19.9554 43.092 18.4454 42.057C17.6964 41.544 16.8294 41.35 15.9954 41.435C15.9964 41.433 15.9954 41.432 15.9944 41.43Z" fill="white"/>
</svg>
